<?xml version="1.0" encoding="utf-8"?>
<!-- Generator: Adobe Illustrator 16.0.4, SVG Export Plug-In . SVG Version: 6.00 Build 0)  -->
<!DOCTYPE svg PUBLIC "-//W3C//DTD SVG 1.1//EN" "http://www.w3.org/Graphics/SVG/1.1/DTD/svg11.dtd">
<svg version="1.1" id="Ebene_1" xmlns="http://www.w3.org/2000/svg" xmlns:xlink="http://www.w3.org/1999/xlink" x="0px" y="0px"
	 width="300px" height="42px" viewBox="0 0 300 42" enable-background="new 0 0 300 42" xml:space="preserve">
<g>
	<path fill="#191919" d="M20.527,10.929c-1.344-1.824-3.072-2.976-5.425-2.976c-2.256,0-4.416,1.728-4.416,4.08
		c0,6.097,14.353,3.553,14.353,15.698c0,7.249-4.512,12.385-11.905,12.385c-4.993,0-8.641-2.88-11.137-7.057l4.561-4.464
		c0.96,2.784,3.504,5.281,6.528,5.281c2.88,0,4.657-2.448,4.657-5.232c0-3.745-3.457-4.801-6.289-5.905
		c-4.657-1.92-8.065-4.272-8.065-9.889C3.39,6.849,7.854,2,13.951,2c3.216,0,7.681,1.584,9.889,4.032L20.527,10.929z"/>
	<path fill="#191919" d="M56.114,40.115c-11.041,0-17.905-8.449-17.905-19.105C38.208,10.257,45.313,2,56.114,2
		C66.915,2,74.02,10.257,74.02,21.01C74.02,31.667,67.155,40.115,56.114,40.115z M56.114,8.96c-6.672,0-10.609,5.905-10.609,11.761
		c0,5.568,2.784,12.433,10.609,12.433s10.609-6.865,10.609-12.433C66.723,14.865,62.787,8.96,56.114,8.96z"/>
	<path fill="#191919" d="M96.025,33.011h9.985v6.145H88.968V2.96h7.057V33.011z"/>
	<path fill="#191919" d="M118.742,2.96h7.057v20.258c0,4.464,0.384,10.753,6.384,10.753c6.001,0,6.385-6.289,6.385-10.753V2.96
		h7.057v21.65c0,8.833-3.744,15.505-13.441,15.505c-9.696,0-13.44-6.672-13.44-15.505V2.96z"/>
	<path fill="#191919" d="M173.606,39.155h-7.057V9.104h-7.301V2.96h21.654v6.145h-7.297V39.155z"/>
	<path fill="#191919" d="M201.653,39.155h-7.057V2.96h7.057V39.155z"/>
	<path fill="#191919" d="M234.456,40.115c-11.041,0-17.904-8.449-17.904-19.105c0-10.753,7.104-19.01,17.904-19.01
		s17.906,8.257,17.906,19.01C252.362,31.667,245.497,40.115,234.456,40.115z M234.456,8.96c-6.672,0-10.609,5.905-10.609,11.761
		c0,5.568,2.785,12.433,10.609,12.433s10.609-6.865,10.609-12.433C245.065,14.865,241.13,8.96,234.456,8.96z"/>
	<path fill="#191919" d="M267.306,2h5.088l19.059,25.298h0.096V2.96h7.057v36.916h-5.088l-19.059-25.298h-0.096v24.578h-7.057V2z"/>
</g>
</svg>
